<?xml version="1.0" encoding="utf-8"?>
<!-- Generator: Adobe Illustrator 21.0.0, SVG Export Plug-In . SVG Version: 6.00 Build 0)  -->
<svg version="1.1" id="Capa_1" xmlns="http://www.w3.org/2000/svg" xmlns:xlink="http://www.w3.org/1999/xlink" x="0px" y="0px"
	 viewBox="0 0 100 94" style="enable-background:new 0 0 100 94;" xml:space="preserve">
<style type="text/css">
	.st0{fill:#434142;}
	.st1{fill:#4A4A45;}
</style>
<g>
	<g>
		<g>
			<path class="st0" d="M16.9,89c-0.4-0.5-1.1-0.8-1.7-0.8c-1.2,0-2.3,1.1-2.3,2.3c0,0.6,0.3,1.1,0.7,1.5c0.4,0.4,1,0.7,1.6,0.7
				c0.6,0,1.3-0.3,1.7-0.8v0.4c-0.5,0.4-1,0.6-1.7,0.6c-1.4,0-2.6-1.2-2.6-2.6c0-1.4,1.2-2.6,2.6-2.6c0.6,0,1.2,0.2,1.7,0.6V89z"/>
			<path class="st0" d="M22.6,93h-0.4l-1.6-2.4h-0.2V93h-0.3v-5h0.6c0.4,0,0.8,0,1.1,0.3c0.4,0.3,0.5,0.6,0.5,1.1
				c0,0.9-0.6,1.3-1.4,1.3L22.6,93z M20.8,90.3c0.3,0,0.6,0,0.9-0.2c0.2-0.2,0.4-0.5,0.4-0.8c0-0.4-0.2-0.7-0.5-0.9
				c-0.3-0.1-0.6-0.1-0.9-0.1h-0.2v2H20.8z"/>
			<path class="st0" d="M25.9,88.3v1.8h2v0.3h-2v2.3h2.1V93h-2.4v-5h2.4v0.3H25.9z"/>
			<path class="st0" d="M31.7,91.3L31,93h-0.3l2.1-5.2l2.1,5.2h-0.3l-0.7-1.6H31.7z M32.8,88.6l-1,2.4h2L32.8,88.6z"/>
			<path class="st0" d="M38.2,93h-0.3v-4.7h-1.3V88h2.9v0.3h-1.3V93z"/>
			<path class="st0" d="M42.7,93h-0.3v-5h0.3V93z"/>
			<path class="st0" d="M47.3,92.2L47.3,92.2l1.5-4.3h0.3l-1.8,5.2L45.5,88h0.3L47.3,92.2z"/>
			<path class="st0" d="M51.7,91.3L51.1,93h-0.3l2.1-5.2l2.1,5.2h-0.3l-0.7-1.6H51.7z M52.8,88.6l-1,2.4h2L52.8,88.6z"/>
			<path class="st0" d="M64.3,88.8c-0.2-0.4-0.5-0.6-1-0.6c-0.5,0-0.9,0.4-0.9,1c0,0.5,0.5,0.7,0.9,0.9l1,0.5c0.4,0.2,0.6,0.5,0.6,1
				c0,0.8-0.8,1.4-1.6,1.4c-0.7,0-1.2-0.4-1.5-1.1l0.3-0.1c0.2,0.5,0.6,0.9,1.2,0.9c0.7,0,1.2-0.5,1.2-1.2c0-0.6-0.6-0.8-1-1
				l-0.9-0.5c-0.3-0.2-0.5-0.5-0.5-0.9c0-0.7,0.5-1.3,1.3-1.3c0.5,0,1,0.3,1.2,0.7L64.3,88.8z"/>
			<path class="st0" d="M69,93h-0.3v-4.7h-1.3V88h2.9v0.3H69V93z"/>
			<path class="st0" d="M76.1,88h0.3v3.1c0,0.5,0,0.9-0.3,1.4c-0.3,0.4-0.9,0.6-1.4,0.6c-0.5,0-1-0.2-1.4-0.6
				c-0.3-0.4-0.3-0.9-0.3-1.4V88h0.3v3c0,0.5,0,0.9,0.3,1.3c0.2,0.3,0.7,0.5,1.1,0.5c0.4,0,0.9-0.2,1.1-0.5c0.3-0.3,0.3-0.8,0.3-1.3
				V88z"/>
			<path class="st0" d="M79.7,88h0.9c0.7,0,1.3,0.1,1.9,0.6c0.5,0.5,0.8,1.2,0.8,1.9c0,0.7-0.3,1.3-0.8,1.8C82,92.8,81.4,93,80.6,93
				h-0.9V88z M80.6,92.7c0.7,0,1.2-0.1,1.7-0.6c0.4-0.4,0.7-1,0.7-1.6c0-0.6-0.3-1.2-0.7-1.7c-0.5-0.4-1-0.5-1.6-0.5H80v4.4H80.6z"
				/>
			<path class="st0" d="M86.6,93h-0.3v-5h0.3V93z"/>
			<path class="st0" d="M94.8,90.5c0,1.4-1.2,2.6-2.6,2.6s-2.6-1.2-2.6-2.6s1.2-2.6,2.6-2.6C93.6,87.9,94.8,89.1,94.8,90.5z
				 M89.9,90.5c0,1.2,1,2.3,2.3,2.3c1.2,0,2.3-1,2.3-2.3c0-1.2-1-2.3-2.3-2.3C91,88.2,89.9,89.2,89.9,90.5z"/>
		</g>
	</g>
	<path class="st1" d="M76.9,10.1c-4.5-5.4-9.8-6.5-15.1-1.9c-4.8,4.2-8.8,9.5-12.8,14c-1.9-0.3-4.4-1.5-6.2-0.8
		c-1.1,0.4-1.7,3.7-1.5,5.6c0.6,6.9,1.1,13.9,2.2,20.8c-1.8-0.7-3.6-1.3-5.5-1.9c-6.8-2.1-13.7-3.7-20.4-5.9
		c-3.6-1.2-3.7-2.7-0.8-4.9c4-2.9,8.3-5.5,12.3-8.4c5.8-4.2,11.6-8.2,16.9-12.8c3.8-3.3,3-7.2-1.5-9.9c-1.8-1.1-4-2.1-6.1-2.5
		C27.6-0.5,16.8-0.2,6.2,3.3C0.6,5.1-0.3,7.7,1.9,13.5c1,2.8,3.7,3.9,6.8,3.9c3.1,0,4.9-1.6,6.2-4.1c0.8-1.4,2.4-3.2,3.9-3.5
		c4-0.9,8.1-1.3,12.2-1.5c2.1-0.1,5.6,0.3,6.3,1.4c0.2,0.3,0.4,0.8,0.3,1.3c-0.1,1.7-2.8,3.1-4.6,4.3c-4.5,3.1-9.3,5.8-13.8,8.9
		c-4.8,3.3-9.7,6.5-13.9,10.3c-4.3,3.8-3.5,6.3,1.6,9.1c1.1,0.6,2.2,1.2,3.3,1.5c5.8,1.9,11.6,3.7,17.4,5.5
		c3.8,1.2,7.7,2.3,11.5,3.4c1.1,0.4,1,1.1,0.3,1.5c-4.5,2.5-9,5-13.6,7.4c-3,1.6-6.3,2.8-9.2,4.6c-2.1,1.3-3.9,3.3-2.3,5.7
		c1.6,2.4,4.3,1.5,6.4,0.5c5.4-2.4,10.9-4.7,15.9-7.6c3.4-1.9,6.6-4.2,9.6-6.6c1.2,3.9,2.8,7.7,4.6,11.3c4.3,8.3,12.2,9.6,20,4.4
		c4.3-2.9,7-7,9.1-11.6c4.9-10.9,5.5-22.4,4.2-34C83.4,22.5,81.6,15.8,76.9,10.1z M73.6,64.6C67.1,73,61,72.1,56.9,62.8
		c-4.1-9-4.8-18.9-4.5-28.6c0.1-3,2.5-6.4,4.7-8.8c2.7-3,5.9-5.8,9.5-7.7c3.6-2,6.5-0.8,8.8,2.7c4.2,6.2,5,13.2,5,19.8
		C80.1,49.4,78.9,57.6,73.6,64.6z M98.9,5.9c0.4-2.3,0-4.5-2.6-5.3c-2.5-0.7-4.5,0.5-5.9,2.5c0,0-1.1,1.8-1.2,9.7
		c-0.4,6.3-1,12.2-1.1,18.1c-0.3,11.8-0.3,23.6-0.5,35.4c0,2.6,1.6,3.6,3.8,3.5c2.2-0.1,4.1-1.1,3.8-3.9c-0.2-1.7-0.2-3.3-0.1-5
		C95.2,42.5,96.1,24.1,98.9,5.9z"/>
</g>
</svg>
