<?xml version="1.0" encoding="utf-8"?>
<!-- Generator: Adobe Illustrator 21.0.0, SVG Export Plug-In . SVG Version: 6.00 Build 0)  -->
<svg version="1.1" id="Capa_1" xmlns="http://www.w3.org/2000/svg" xmlns:xlink="http://www.w3.org/1999/xlink" x="0px" y="0px"
	 viewBox="0 0 5.4 9.1" style="enable-background:new 0 0 5.4 9.1;" xml:space="preserve">
<style type="text/css">
	.st0{fill:#FFFFFF;}
</style>
<g>
	<g>
		<path class="st0" d="M2.6,8.8c-1.3,0-2.4-1-2.4-2.2v-4c0-1.2,1.1-2.2,2.4-2.2s2.4,1,2.4,2.2v4C4.9,7.7,3.9,8.8,2.6,8.8z M2.6,0.8
			c-1,0-1.8,0.8-1.8,1.8v4c0,1,0.8,1.8,1.8,1.8s1.8-0.8,1.8-1.8v-4C4.4,1.5,3.6,0.8,2.6,0.8z"/>
	</g>
	<g>
		<path class="st0" d="M2.6,3.9c-0.2,0-0.4-0.2-0.4-0.4v-1c0-0.2,0.2-0.4,0.4-0.4s0.4,0.2,0.4,0.4v1C2.9,3.7,2.8,3.9,2.6,3.9z"/>
	</g>
</g>
</svg>
