<?xml version="1.0" encoding="utf-8"?>
<!-- Generator: Adobe Illustrator 19.0.0, SVG Export Plug-In . SVG Version: 6.00 Build 0)  -->
<svg version="1.1" id="Capa_1" xmlns="http://www.w3.org/2000/svg" xmlns:xlink="http://www.w3.org/1999/xlink" x="0px" y="0px"
	 viewBox="0 0 24 24" style="enable-background:new 0 0 24 24;" xml:space="preserve">
<style type="text/css">
	.st0{display:none;fill:#030104;}
	.st1{fill:#030104;}
</style>
<path id="XMLID_2_" class="st0" d="M0,0v24h24V0H0z M16,7h-1.9C13.5,7,13,7.3,13,7.9V9h3l-0.2,3H13v8h-3v-8H8V9h2V7.1
	c0-2,1.1-3.1,3.5-3.1H16V7z"/>
<path id="XMLID_187_" class="st1" d="M18,6.6v1.4c0,0.3-0.3,0.6-0.6,0.6h-1.4c-0.3,0-0.6-0.3-0.6-0.6V6.6c0-0.3,0.3-0.6,0.6-0.6h1.4
	C17.7,6,18,6.3,18,6.6z M16.9,11.3c0,0.2,0.1,0.5,0.1,0.7c0,2.7-2.2,4.9-4.9,4.9S7.1,14.7,7.1,12c0-0.2,0-0.5,0.1-0.7
	c0-0.2,0.1-0.4,0.1-0.6H6v6.7C6,17.7,6.3,18,6.6,18h10.8c0.3,0,0.6-0.3,0.6-0.6v-6.7h-1.3C16.8,10.9,16.8,11.1,16.9,11.3z M12,15.1
	c1.7,0,3.1-1.4,3.1-3.1S13.7,8.9,12,8.9S8.9,10.3,8.9,12S10.3,15.1,12,15.1z M24,0v24H0V0H24z M20,5.8c0-1-0.8-1.8-1.8-1.8H5.8
	C4.8,4,4,4.8,4,5.8v12.3c0,1,0.8,1.8,1.8,1.8h12.3c1,0,1.8-0.8,1.8-1.8C20,18.2,20,5.8,20,5.8z"/>
</svg>
